<svg width="217" height="50" viewBox="0 0 217 50" fill="none" xmlns="http://www.w3.org/2000/svg">
<path d="M79.7402 15.6113H85.2936V34.3273H79.7402V15.6113Z" fill="#0B091B"/>
<path d="M97.9802 19.5895C99.0126 19.5895 99.9203 19.8209 100.704 20.2836C101.504 20.7286 102.119 21.3694 102.546 22.206C102.991 23.0425 103.213 24.0126 103.213 25.1161V34.3273H97.82V26.6647C97.82 25.9527 97.6242 25.3831 97.2326 24.956C96.8589 24.5288 96.3605 24.3152 95.7375 24.3152C95.0077 24.333 94.4293 24.6 94.0021 25.1161C93.5749 25.6323 93.3613 26.3087 93.3613 27.1453V34.3273H87.9681V19.8031H93.3613V22.0458C93.8775 21.2448 94.5183 20.6396 95.2836 20.2302C96.0668 19.8031 96.9657 19.5895 97.9802 19.5895Z" fill="#0B091B"/>
<path d="M113.378 18.4681C112.916 18.4681 112.542 18.5927 112.257 18.8419C111.99 19.0911 111.857 19.4293 111.857 19.8565V20.5506H114.874V23.9948H111.857V34.3273H106.517V23.9948H104.541V20.5506H106.517V19.2157C106.517 17.7027 107.042 16.5013 108.092 15.6113C109.142 14.7213 110.522 14.2764 112.23 14.2764C113.316 14.2764 114.411 14.4544 115.514 14.8103L114.927 18.8152C114.233 18.5838 113.717 18.4681 113.378 18.4681ZM117.357 14.5167H122.75V34.3273H117.357V14.5167Z" fill="#0B091B"/>
<path d="M140.197 19.8031V34.3273H134.803V32.1647C134.305 32.9478 133.673 33.5441 132.908 33.9535C132.16 34.3629 131.306 34.5676 130.345 34.5676C129.33 34.5676 128.431 34.3451 127.648 33.9001C126.883 33.4373 126.286 32.7877 125.859 31.9511C125.432 31.1145 125.218 30.1356 125.218 29.0142V19.8031H130.612V27.4924C130.612 28.2043 130.79 28.7739 131.146 29.2011C131.502 29.6105 131.973 29.8152 132.561 29.8152C133.255 29.7974 133.798 29.5304 134.189 29.0142C134.599 28.498 134.803 27.8216 134.803 26.9851V19.8031H140.197Z" fill="#0B091B"/>
<path d="M149.46 19.6162C151.845 19.6162 153.705 20.3281 155.04 21.7521C156.375 23.1582 157.043 25.0894 157.043 27.5458C157.043 27.9195 157.034 28.1954 157.016 28.3734H147.244C147.458 29.0676 147.805 29.6016 148.285 29.9754C148.784 30.3491 149.38 30.536 150.074 30.536C151.196 30.536 152.264 30.0733 153.278 29.1477L156.082 31.8977C155.316 32.7521 154.382 33.4017 153.278 33.8467C152.192 34.2917 150.973 34.5142 149.62 34.5142C148.018 34.5142 146.63 34.2116 145.455 33.6064C144.281 32.9834 143.373 32.1202 142.732 31.0166C142.109 29.8953 141.798 28.5959 141.798 27.1186C141.798 25.6234 142.118 24.3152 142.759 23.1938C143.4 22.0547 144.298 21.1736 145.455 20.5506C146.612 19.9276 147.947 19.6162 149.46 19.6162ZM151.703 25.7302C151.721 25.0183 151.525 24.4309 151.116 23.9681C150.706 23.5053 150.172 23.2739 149.514 23.2739C148.891 23.2739 148.374 23.4964 147.965 23.9414C147.556 24.3864 147.28 24.9827 147.137 25.7302H151.703Z" fill="#0B091B"/>
<path d="M168.667 19.5895C169.699 19.5895 170.607 19.8209 171.39 20.2836C172.191 20.7286 172.805 21.3694 173.232 22.206C173.677 23.0425 173.9 24.0126 173.9 25.1161V34.3273H168.507V26.6647C168.507 25.9527 168.311 25.3831 167.919 24.956C167.545 24.5288 167.047 24.3152 166.424 24.3152C165.694 24.333 165.116 24.6 164.689 25.1161C164.261 25.6323 164.048 26.3087 164.048 27.1453V34.3273H158.655V19.8031H164.048V22.0458C164.564 21.2448 165.205 20.6396 165.97 20.2302C166.753 19.8031 167.652 19.5895 168.667 19.5895Z" fill="#0B091B"/>
<path d="M185.266 25.4365C185.017 24.9738 184.688 24.6178 184.279 24.3686C183.887 24.1194 183.442 23.9948 182.944 23.9948C182.232 23.9948 181.653 24.2796 181.208 24.8492C180.763 25.4187 180.541 26.1663 180.541 27.0919C180.541 28.0352 180.754 28.8006 181.181 29.388C181.626 29.9576 182.214 30.2424 182.944 30.2424C184.029 30.2424 184.795 29.7084 185.24 28.6404L189.431 30.7496C188.88 31.9422 188.008 32.8678 186.815 33.5263C185.64 34.1849 184.252 34.5142 182.65 34.5142C181.137 34.5142 179.811 34.2116 178.672 33.6064C177.533 32.9834 176.652 32.1202 176.029 31.0166C175.406 29.8953 175.094 28.5959 175.094 27.1186C175.094 25.6234 175.406 24.3152 176.029 23.1938C176.669 22.0547 177.559 21.1736 178.698 20.5506C179.855 19.9276 181.19 19.6162 182.703 19.6162C184.216 19.6162 185.551 19.9454 186.708 20.604C187.883 21.2626 188.782 22.1971 189.405 23.4074L185.266 25.4365Z" fill="#0B091B"/>
<path d="M196.902 19.6162C199.287 19.6162 201.147 20.3281 202.482 21.7521C203.817 23.1582 204.484 25.0894 204.484 27.5458C204.484 27.9195 204.476 28.1954 204.458 28.3734H194.686C194.9 29.0676 195.247 29.6016 195.727 29.9754C196.226 30.3491 196.822 30.536 197.516 30.536C198.637 30.536 199.705 30.0733 200.72 29.1477L203.523 31.8977C202.758 32.7521 201.823 33.4017 200.72 33.8467C199.634 34.2917 198.415 34.5142 197.062 34.5142C195.46 34.5142 194.072 34.2116 192.897 33.6064C191.722 32.9834 190.815 32.1202 190.174 31.0166C189.551 29.8953 189.239 28.5959 189.239 27.1186C189.239 25.6234 189.56 24.3152 190.201 23.1938C190.841 22.0547 191.74 21.1736 192.897 20.5506C194.054 19.9276 195.389 19.6162 196.902 19.6162ZM199.145 25.7302C199.162 25.0183 198.967 24.4309 198.557 23.9681C198.148 23.5053 197.614 23.2739 196.955 23.2739C196.332 23.2739 195.816 23.4964 195.407 23.9414C194.997 24.3864 194.722 24.9827 194.579 25.7302H199.145Z" fill="#0B091B"/>
<path d="M211.49 22.0992C212.006 21.2982 212.647 20.6841 213.412 20.2569C214.195 19.812 215.076 19.5895 216.055 19.5895V24.4487C215.842 24.4131 215.53 24.3953 215.121 24.3953C213.999 24.3953 213.109 24.6623 212.451 25.1962C211.81 25.7302 211.49 26.46 211.49 27.3856V34.3273H206.096V19.8031H211.49V22.0992Z" fill="#0B091B"/>
<rect x="0.72168" y="8.25928" width="59.3441" height="42.1152" rx="11.486" transform="rotate(-8 0.72168 8.25928)" fill="#FB0F5A"/>
<path d="M28.1435 16.7613C26.7749 16.1921 25.3065 17.3274 25.5128 18.7953L27.5097 33.0037C27.716 34.4716 29.4403 35.1582 30.5991 34.2338L41.6232 25.4401C42.7618 24.5319 42.5094 22.7353 41.1645 22.176L28.1435 16.7613Z" fill="white"/>
</svg>