<svg width="203" height="254" viewBox="0 0 203 254" fill="none" xmlns="http://www.w3.org/2000/svg">
<path d="M123.08 42.0457C120.987 38.4995 116.813 37.8779 113.306 39.5095C104.383 43.655 95.5418 47.9615 86.7839 52.4233C85.1604 47.1512 83.6253 41.8514 82.173 36.5294C88.8491 33.4994 95.5418 30.5137 102.262 27.5946C105.796 26.0574 106.613 20.9407 104.824 17.9162C102.693 14.309 98.5955 13.8373 95.0503 15.3801C89.5504 17.772 84.0671 20.2137 78.5948 22.6777C77.1811 16.8674 75.8669 11.0292 74.6576 5.16892C73.8845 1.42298 69.4116 -0.735771 65.872 0.229849C61.9404 1.30091 60.107 5.17449 60.8801 8.93153C62.244 15.5521 63.7516 22.1505 65.375 28.7101C57.5724 32.3228 49.803 36.0022 42.0722 39.7592C40.8021 34.1376 39.5872 28.5048 38.4386 22.8553C37.6766 19.1094 33.1817 16.9506 29.6532 17.9162C25.716 18.9873 23.8992 22.8609 24.6612 26.6179C25.9976 33.1719 27.4167 39.7093 28.9132 46.23C20.3982 50.4754 11.922 54.7985 3.4954 59.2215C0.0883147 61.0084 -0.955354 65.7034 0.933175 68.8999C2.95423 72.3184 7.28346 73.2341 10.7071 71.4361C17.8692 67.679 25.0644 63.9885 32.2872 60.3591C33.9051 66.8688 35.6114 73.3562 37.384 79.8214C29.482 84.5774 21.6573 89.461 13.9265 94.4833C10.7016 96.5755 9.34321 100.743 11.3643 104.162C13.2362 107.336 17.8968 108.807 21.1382 106.698C27.8309 102.353 34.5898 98.1127 41.4095 93.9672C44.0545 102.963 46.8487 111.914 49.8085 120.81C51.0123 124.44 54.7451 126.798 58.594 125.749C62.1833 124.773 64.7952 120.688 63.5859 117.048C60.212 106.903 57.0479 96.692 54.077 86.4198C62.1115 81.736 70.2289 77.1909 78.418 72.7846C81.9908 83.1345 85.8949 93.3734 90.1247 103.485C91.5991 107.014 94.8626 109.528 98.9102 108.424C102.273 107.508 105.388 103.274 103.902 99.7221C99.2692 88.6507 95.0282 77.424 91.1849 66.0641C100.859 61.0861 110.634 56.2969 120.507 51.7129C124.008 50.1036 124.902 45.1312 123.08 42.0457ZM50.1453 72.3018C48.4943 66.1695 46.9039 60.0262 45.3964 53.8551C53.2377 50.0203 61.112 46.2578 69.0251 42.5673C70.5657 48.1113 72.2002 53.6276 73.9231 59.1216C65.9217 63.3837 57.9921 67.7734 50.1453 72.3018Z" fill="#FB0F5A"/>
<path d="M159.849 155.902C152.107 158.755 145.698 164.218 142.173 171.709C139.005 178.436 137.912 185.599 136.73 192.834C136.179 196.219 135.578 199.609 134.651 202.926C134.417 203.764 134.163 204.602 133.88 205.425C133.782 205.716 133.313 206.936 133.333 206.922C132.693 208.399 131.932 209.837 131.048 211.183C130.843 211.498 130.624 211.798 130.414 212.108C130.38 212.157 130.35 212.205 130.321 212.244C130.297 212.263 130.272 212.287 130.238 212.316C129.701 212.806 129.247 213.445 128.73 213.963C128.139 214.559 127.524 215.13 126.884 215.668C126.743 215.789 126.592 215.905 126.445 216.021C126.44 216.007 125.645 216.593 125.542 216.66C124.297 217.493 122.984 218.229 121.632 218.874C121.661 218.859 121.022 219.14 120.739 219.271C120.553 219.343 120.348 219.421 120.285 219.445C119.401 219.765 118.503 220.046 117.595 220.288C116.78 220.506 115.955 220.69 115.125 220.845C114.822 220.898 114.52 220.946 114.212 220.995C114.134 221 114.046 221.004 113.934 221.014C112.24 221.126 110.6 221.121 108.911 221.063C108.803 221.058 108.72 221.058 108.647 221.053C108.252 221 107.861 220.937 107.471 220.864C106.651 220.714 105.84 220.53 105.04 220.302C104.381 220.118 103.731 219.9 103.087 219.668C103.028 219.639 102.965 219.61 102.892 219.571C102.389 219.329 101.886 219.092 101.393 218.83C95.794 215.852 91.1322 211.362 85.2695 208.839C81.1495 207.067 76.8733 206.239 72.3774 207.164C66.8857 208.292 62.7217 212.074 59.578 216.501C56.6638 220.612 54.7746 225.426 52.6609 229.959C50.352 234.903 48.043 239.848 45.734 244.792C44.3038 247.858 44.914 251.514 48.0284 253.258C50.7669 254.788 55.1554 253.936 56.5954 250.856C60.4176 242.671 63.9128 234.211 68.1939 226.244C68.6479 225.397 69.1263 224.564 69.6437 223.75C69.8585 223.416 70.0782 223.077 70.3125 222.748C70.4052 222.632 70.6786 222.264 70.7079 222.23C71.24 221.619 71.8063 221.009 72.4262 220.481C72.519 220.423 72.9046 220.142 72.9729 220.109C72.9827 220.104 74.2177 219.518 74.1054 219.523C74.5643 219.397 75.5601 219.213 75.3307 219.203C75.8286 219.179 76.3265 219.188 76.8293 219.188C77.1027 219.242 77.376 219.29 77.6494 219.358C77.9716 219.435 78.2889 219.523 78.6013 219.615C78.7575 219.663 79.5044 219.963 79.5337 219.958C84.879 222.457 89.3016 226.424 94.4174 229.31C100.475 232.729 107.7 234.162 114.676 233.358C122.115 232.506 128.92 229.76 134.817 225.101C140.548 220.573 144.209 214.229 146.347 207.382C148.344 200.984 148.959 194.296 150.213 187.749C150.804 184.659 151.575 181.627 152.659 178.664C152.571 178.94 153.176 177.477 153.284 177.259C153.616 176.586 153.972 175.923 154.358 175.279C154.738 174.634 155.163 174.024 155.588 173.404C155.602 173.385 155.617 173.366 155.632 173.351C156.037 172.886 156.437 172.426 156.867 171.981C157.16 171.68 157.462 171.39 157.775 171.109C157.838 171.051 158.292 170.663 158.536 170.445C158.736 170.3 159.078 170.048 159.146 170C159.581 169.709 160.025 169.428 160.474 169.162C161.343 168.658 162.246 168.184 163.178 167.796C163.271 167.767 163.393 167.733 163.545 167.685C164.15 167.506 164.745 167.293 165.356 167.133C167.513 166.557 167.777 166.499 170.008 166.44C171.057 166.411 172.117 166.44 173.161 166.542C172.878 166.513 172.239 166.363 173.444 166.595C173.957 166.692 174.474 166.789 174.982 166.905C182.602 168.683 188.079 174.029 191.359 181.526C192.663 184.499 197.212 185.482 199.892 183.802C203.026 181.831 203.705 178.489 202.314 175.303C195.406 159.559 176.847 149.636 159.849 155.902Z" fill="#FFCE22"/>
</svg>