<svg width="202" height="527" viewBox="0 0 202 527" fill="none" xmlns="http://www.w3.org/2000/svg">
<path d="M104.657 225.996C99.3678 233.13 96.8255 241.865 98.0858 250.761C99.214 258.75 102.471 265.923 105.691 273.214C107.199 276.624 108.665 280.067 109.794 283.636C110.079 284.537 110.347 285.45 110.579 286.366C110.663 286.689 110.963 288.076 110.972 288.051C111.271 289.773 111.436 291.53 111.437 293.276C111.439 293.683 111.419 294.085 111.413 294.491C111.411 294.555 111.413 294.616 111.41 294.669C111.399 294.701 111.391 294.737 111.378 294.783C111.184 295.544 111.153 296.393 110.993 297.168C110.814 298.057 110.598 298.939 110.34 299.803C110.284 299.997 110.216 300.191 110.153 300.383C110.14 300.372 109.77 301.373 109.718 301.495C109.089 302.983 108.341 304.423 107.504 305.802C107.521 305.772 107.111 306.402 106.934 306.687C106.809 306.862 106.67 307.053 106.628 307.112C106.02 307.921 105.377 308.703 104.702 309.455C104.096 310.131 103.462 310.782 102.805 311.409C102.564 311.635 102.32 311.856 102.071 312.08C102.004 312.131 101.927 312.186 101.832 312.261C100.371 313.354 98.8895 314.31 97.3325 315.246C97.2328 315.304 97.158 315.353 97.0891 315.391C96.7011 315.574 96.3118 315.745 95.9168 315.908C95.0886 316.251 94.2491 316.557 93.3926 316.818C92.6896 317.036 91.9752 317.218 91.2567 317.383C91.1867 317.391 91.1122 317.401 91.0233 317.409C90.4266 317.482 89.8328 317.56 89.2335 317.61C82.4221 318.172 75.5607 316.806 68.7813 317.937C64.0175 318.733 59.6722 320.481 56.1672 323.956C51.885 328.2 50.3716 334.087 50.1594 339.965C49.9676 345.421 51.1158 350.917 51.8952 356.289C52.7423 362.15 53.5895 368.011 54.4367 373.873C54.963 377.506 57.6787 380.483 61.5188 380.25C64.8939 380.043 68.3451 376.696 67.8189 373.044C66.417 363.342 64.5566 353.58 63.6974 343.808C63.6047 342.769 63.5426 341.729 63.5271 340.684C63.5228 340.254 63.5201 339.816 63.5391 339.383C63.5539 339.223 63.5823 338.727 63.5886 338.679C63.7069 337.811 63.8559 336.923 64.1021 336.078C64.1513 335.971 64.3326 335.489 64.3741 335.418C64.38 335.408 65.1463 334.151 65.0479 334.221C65.387 333.837 66.1757 333.087 65.9632 333.212C66.3977 332.899 66.8522 332.616 67.3055 332.322C67.5835 332.21 67.8586 332.094 68.1451 331.996C68.4815 331.878 68.8191 331.772 69.1553 331.673C69.3248 331.626 70.1759 331.462 70.1994 331.441C76.498 330.591 82.834 331.619 89.1552 331.257C96.6413 330.828 104.003 327.907 109.815 323.09C116.017 317.957 120.524 311.469 123.081 303.768C125.565 296.283 125.108 288.354 122.979 280.857C120.99 273.853 117.583 267.393 114.836 260.687C113.539 257.524 112.438 254.307 111.66 250.97C111.744 251.273 111.423 249.584 111.391 249.323C111.292 248.515 111.22 247.701 111.186 246.888C111.148 246.077 111.169 245.272 111.185 244.458C111.187 244.432 111.188 244.406 111.193 244.384C111.283 243.723 111.371 243.069 111.495 242.411C111.581 241.966 111.682 241.523 111.797 241.084C111.82 240.994 111.999 240.375 112.09 240.033C112.185 239.784 112.344 239.354 112.376 239.27C112.596 238.75 112.83 238.234 113.077 237.728C113.562 236.76 114.095 235.799 114.706 234.9C114.773 234.819 114.862 234.716 114.97 234.584C115.41 234.066 115.82 233.523 116.276 233.02C117.879 231.231 118.083 231.024 120.059 229.665C120.988 229.024 121.96 228.431 122.962 227.912C122.69 228.051 122.024 228.288 123.249 227.794C123.768 227.583 124.289 227.364 124.819 227.177C132.741 224.337 140.845 226.007 148.242 230.924C151.178 232.873 155.864 231.111 157.282 228.005C158.94 224.372 157.572 220.928 154.431 218.836C138.876 208.516 116.268 210.33 104.657 225.996Z" fill="#FB0F5A"/>
<path d="M53.413 127.483C77.0317 137.198 105.626 146.965 129.636 133.211C154.094 119.195 158.935 88.7542 157.256 62.9C156.383 49.4466 152.746 35.9072 145.76 24.2138C142.746 19.1681 136.891 16.3067 131.191 18.9114C126.239 21.1746 122.938 28.1864 125.967 33.2646C128.415 37.3649 130.974 42.7681 132.202 46.551C132.583 47.7084 133.447 51.0069 133.876 52.975C134.404 55.4122 134.825 57.8732 135.141 60.3501C135.782 65.3256 135.904 68.6066 135.679 74.2767C135.47 79.5827 134.886 84.8785 133.923 90.0996C133.853 90.489 133.819 90.6836 133.811 90.7531C133.711 91.2032 133.591 91.6556 133.48 92.1108C133.125 93.5055 132.736 94.8965 132.291 96.2673C131.615 98.374 130.344 101.617 129.714 102.902C127.741 106.935 124.869 110.046 121.093 112.99C120.688 113.311 120.542 113.439 120.506 113.488C120.433 113.516 120.24 113.599 119.827 113.818C118.712 114.404 117.603 114.974 116.448 115.473C115.452 115.904 114.445 116.295 113.425 116.645C113.414 116.65 113.406 116.647 113.403 116.655C112.56 116.889 111.7 117.099 110.848 117.285C108.702 117.757 106.519 118.08 104.322 118.272C104.19 118.287 103.372 118.332 102.929 118.36C102.604 118.359 102.186 118.369 102.186 118.369C100.898 118.342 99.6115 118.334 98.3246 118.253C85.4023 117.444 73.1335 112.24 60.8074 107.167C55.4991 104.983 48.5115 108.155 46.8119 113.568C44.9891 119.369 47.7204 125.141 53.413 127.483Z" fill="#770FFB"/>
<path d="M56.774 504.74C51.984 509.53 51.5539 518.26 56.6439 522.9C61.7539 527.56 69.674 527.9 74.804 522.77C79.594 517.98 80.024 509.25 74.934 504.61C69.834 499.94 61.904 499.61 56.774 504.74Z" fill="#1BBAFF"/>
</svg>