<svg width="143" height="152" viewBox="0 0 143 152" fill="none" xmlns="http://www.w3.org/2000/svg">
<path d="M110.458 13.3081C95.5781 2.51805 76.338 -2.27195 58.038 1.02805C40.468 4.19805 25.3981 15.758 15.0081 29.948C6.05806 42.168 1.84808 55.9881 1.39808 69.9681C-4.43192 98.9181 8.17803 130.978 35.598 144.238C51.458 151.908 70.3181 153.728 87.3981 148.418C107.568 142.148 122.798 126.618 132.798 108.348C141.918 91.678 145.428 72.628 140.048 54.358C135.108 37.598 124.478 23.4781 110.458 13.3081ZM104.718 42.5881C105.238 43.1581 105.738 43.738 106.238 44.328C106.338 44.448 106.658 44.838 106.928 45.168C107.198 45.528 107.578 46.0381 107.678 46.1881C108.118 46.8181 108.548 47.458 108.968 48.098C109.908 49.548 110.788 51.028 111.608 52.548C112.418 54.068 113.148 55.618 113.858 57.178C113.878 57.218 113.888 57.248 113.908 57.288C114.168 57.998 114.418 58.708 114.658 59.428C115.588 62.258 116.268 65.158 116.748 68.108C116.678 67.878 116.968 70.578 116.998 71.228C117.058 72.748 117.048 74.268 116.968 75.798C116.938 76.318 116.448 79.8981 116.688 78.7581C116.278 80.9281 115.788 83.0681 115.148 85.1881C111.268 98.1081 101.228 112.828 89.548 119.768C88.158 120.598 86.708 121.288 85.288 122.048C85.058 122.168 84.878 122.268 84.718 122.348C84.088 122.598 83.438 122.838 82.798 123.058C81.278 123.588 79.738 124.048 78.178 124.438C77.398 124.638 76.6181 124.818 75.8281 124.978C75.7381 124.998 73.658 125.358 73.538 125.418C70.608 125.768 67.6281 125.848 64.6981 125.728C63.8981 125.698 63.098 125.628 62.288 125.588C62.138 125.578 61.728 125.528 61.418 125.498C59.808 125.258 58.2181 124.948 56.6381 124.578C54.8781 124.158 53.1881 123.588 51.4581 123.078C51.2181 123.008 51.038 122.958 50.868 122.908C50.598 122.798 50.328 122.678 50.058 122.558C49.658 121.998 49.2081 121.448 48.6881 120.938C46.2681 118.568 44.018 116.078 41.838 113.488C41.628 113.238 41.4581 113.038 41.3281 112.888C40.8981 112.318 40.4781 111.738 40.0781 111.158C38.8681 109.428 37.7081 107.648 36.6281 105.828C34.8881 102.918 33.4081 99.8881 31.9581 96.8181C31.8781 96.6581 31.5581 95.8981 31.4581 95.6881C31.2481 95.1381 31.048 94.578 30.848 94.018C30.218 92.238 29.6481 90.428 29.1481 88.598C27.3681 82.088 26.788 78.6681 26.908 72.5681C27.388 70.7481 27.9681 68.938 28.6381 67.178C28.6981 67.058 28.768 66.9281 28.838 66.7781C29.398 65.6781 29.938 64.578 30.528 63.488C32.438 59.978 32.618 55.888 31.278 52.388C32.458 50.008 33.7281 47.6881 35.1881 45.4681C35.4681 45.0381 37.488 42.3581 37.098 42.7781C38.218 41.4281 39.378 40.098 40.598 38.828C41.708 37.678 42.8781 36.578 44.0681 35.518C44.6081 35.038 47.018 33.228 46.588 33.488C49.168 31.728 51.8081 30.108 54.6281 28.758C54.7781 28.688 55.358 28.428 55.788 28.238C56.218 28.078 56.828 27.848 56.978 27.798C58.458 27.288 59.958 26.8381 61.478 26.4681C62.238 26.2781 63.008 26.1181 63.778 25.9681C63.928 25.9381 64.568 25.8481 65.028 25.7781C65.498 25.7381 66.198 25.678 66.368 25.668C67.358 25.608 68.348 25.568 69.338 25.578C73.148 25.588 74.9181 25.8281 78.8881 26.8081C80.7481 27.2681 82.5881 27.808 84.3981 28.428C84.8181 28.578 85.248 28.728 85.668 28.878C85.608 28.888 87.578 29.758 87.728 29.828C90.508 31.158 93.178 32.7181 95.718 34.4381C96.248 34.7981 96.758 35.168 97.278 35.548C97.378 35.628 97.488 35.7281 97.618 35.8381C98.938 36.9681 100.248 38.088 101.498 39.298C102.618 40.338 103.688 41.4481 104.718 42.5881Z" fill="#1BBAFF"/>
</svg>