<svg width="171" height="110" viewBox="0 0 171 110" fill="none" xmlns="http://www.w3.org/2000/svg">
<path d="M123.923 2.83205C115.602 5.93404 108.713 11.8746 104.924 20.022C101.519 27.3372 100.344 35.1264 99.0739 42.9947C98.481 46.676 97.8356 50.3626 96.8387 53.9702C96.5868 54.8813 96.314 55.7924 96.0097 56.6877C95.9047 57.0037 95.401 58.3309 95.422 58.3151C94.7347 59.9214 93.9161 61.4855 92.9664 62.9496C92.7461 63.2919 92.51 63.6185 92.2843 63.9555C92.2476 64.0082 92.2161 64.0609 92.1846 64.103C92.1584 64.1241 92.1322 64.1504 92.0955 64.182C91.5183 64.7139 91.0303 65.4091 90.4741 65.9726C89.8393 66.6204 89.1782 67.2418 88.4908 67.8264C88.3386 67.9581 88.176 68.0845 88.0186 68.2109C88.0133 68.1951 87.1581 68.8324 87.0479 68.9061C85.7099 69.8119 84.2985 70.6124 82.8451 71.3129C82.8766 71.2971 82.1892 71.6026 81.8849 71.7448C81.6855 71.8238 81.4651 71.908 81.3969 71.9344C80.4472 72.282 79.4818 72.5874 78.5058 72.8507C77.6296 73.0877 76.7429 73.2879 75.8509 73.4564C75.5256 73.5143 75.2003 73.567 74.8697 73.6196C74.7858 73.6249 74.6913 73.6302 74.5706 73.6407C72.7499 73.7618 70.987 73.7566 69.1715 73.6934C69.0561 73.6881 68.9669 73.6881 68.8882 73.6828C68.4632 73.6249 68.0434 73.5564 67.6237 73.4774C66.7422 73.3142 65.8712 73.1141 65.0107 72.8665C64.3024 72.6664 63.6045 72.4294 62.9119 72.1766C62.849 72.145 62.7807 72.1134 62.702 72.0713C62.1616 71.808 61.6212 71.5499 61.0912 71.2655C55.073 68.0266 50.0621 63.1445 43.7605 60.4006C39.3321 58.4731 34.7358 57.5725 29.9033 58.5784C24.0005 59.8055 19.5249 63.9186 16.1458 68.7323C13.0134 73.2036 10.9828 78.4385 8.71091 83.368C6.2291 88.7452 3.74729 94.1223 1.26548 99.4994C-0.271874 102.833 0.384001 106.809 3.73156 108.705C6.6751 110.37 11.3921 109.443 12.9399 106.093C17.0483 97.1927 20.8051 87.992 25.4067 79.3285C25.8947 78.4069 26.4089 77.5011 26.9651 76.6163C27.1959 76.2529 27.432 75.8842 27.6839 75.5314C27.7836 75.405 28.0774 75.0048 28.1089 74.9679C28.6808 74.3043 29.2894 73.6407 29.9558 73.0666C30.0555 73.0034 30.47 72.698 30.5435 72.6611C30.554 72.6559 31.8814 72.0186 31.7608 72.0239C32.254 71.8869 33.3244 71.6868 33.0777 71.6763C33.6129 71.65 34.1481 71.6605 34.6886 71.6605C34.9824 71.7184 35.2762 71.7711 35.5701 71.8448C35.9163 71.9291 36.2574 72.0239 36.5932 72.1239C36.7611 72.1766 37.5639 72.5031 37.5954 72.4979C43.3408 75.2154 48.0945 79.5287 53.5933 82.6676C60.1048 86.3858 67.8703 87.9447 75.3682 87.0704C83.3645 86.1435 90.6788 83.1573 97.0171 78.0909C103.177 73.1667 107.112 66.2675 109.41 58.8207C111.556 51.8635 112.218 44.5905 113.566 37.4701C114.201 34.1101 115.03 30.8132 116.195 27.5901C116.1 27.8903 116.751 26.2997 116.866 26.0627C117.223 25.3307 117.606 24.6092 118.021 23.9088C118.43 23.2083 118.886 22.5447 119.343 21.8706C119.359 21.8495 119.374 21.8285 119.39 21.8127C119.826 21.3071 120.256 20.8067 120.718 20.3222C121.032 19.9957 121.358 19.6797 121.693 19.3742C121.762 19.311 122.25 18.8898 122.512 18.6528C122.727 18.4948 123.094 18.2208 123.168 18.1682C123.635 17.8522 124.112 17.5467 124.595 17.2571C125.529 16.7093 126.5 16.1932 127.502 15.7719C127.602 15.7403 127.733 15.7034 127.895 15.6507C128.546 15.4559 129.186 15.2242 129.842 15.0504C132.161 14.4237 132.444 14.3605 134.842 14.2973C135.97 14.2657 137.109 14.2973 138.232 14.4079C137.928 14.3763 137.24 14.213 138.536 14.4658C139.087 14.5711 139.643 14.6712 140.189 14.8029C148.379 16.7357 154.267 22.5499 157.793 30.7026C159.193 33.9362 164.084 35.0106 166.964 33.1778C170.333 31.0343 171.062 27.4004 169.567 23.935C162.142 6.80819 142.193 -3.98286 123.923 2.83205Z" fill="#770FFB"/>
</svg>