<svg width="287" height="42" viewBox="0 0 287 42" fill="none" xmlns="http://www.w3.org/2000/svg">
<path d="M100.557 31.718C98.2611 31.718 96.2368 31.2194 94.4844 30.2224C92.732 29.2253 91.3422 27.8355 90.3149 26.0529C89.3179 24.2703 88.8193 22.2309 88.8193 19.9347C88.8193 17.6384 89.3179 15.599 90.3149 13.8164C91.3422 12.0338 92.732 10.644 94.4844 9.64694C96.2368 8.64989 98.2611 8.15137 100.557 8.15137C103.428 8.15137 105.845 8.90671 107.809 10.4174C109.772 11.8979 111.026 13.9524 111.57 16.581H105.452C105.15 15.4933 104.546 14.6473 103.639 14.043C102.763 13.4085 101.721 13.0913 100.512 13.0913C98.9107 13.0913 97.5511 13.6956 96.4332 14.9041C95.3153 16.1126 94.7563 17.7895 94.7563 19.9347C94.7563 22.0798 95.3153 23.7567 96.4332 24.9652C97.5511 26.1738 98.9107 26.778 100.512 26.778C101.721 26.778 102.763 26.4759 103.639 25.8716C104.546 25.2674 105.15 24.4063 105.452 23.2884H111.57C111.026 25.8263 109.772 27.8657 107.809 29.4066C105.845 30.9475 103.428 31.718 100.557 31.718Z" fill="#0B091B"/>
<path d="M126.599 31.718C124.423 31.718 122.46 31.2194 120.707 30.2224C118.985 29.2253 117.61 27.8506 116.583 26.0982C115.586 24.3156 115.087 22.2611 115.087 19.9347C115.087 17.6082 115.601 15.5688 116.628 13.8164C117.656 12.0338 119.03 10.644 120.753 9.64694C122.505 8.64989 124.469 8.15137 126.644 8.15137C128.789 8.15137 130.723 8.64989 132.445 9.64694C134.198 10.644 135.572 12.0338 136.569 13.8164C137.597 15.5688 138.11 17.6082 138.11 19.9347C138.11 22.2611 137.597 24.3156 136.569 26.0982C135.572 27.8506 134.198 29.2253 132.445 30.2224C130.693 31.2194 128.744 31.718 126.599 31.718ZM126.599 26.6874C128.11 26.6874 129.424 26.1285 130.542 25.0106C131.66 23.8624 132.219 22.1705 132.219 19.9347C132.219 17.6989 131.66 16.022 130.542 14.9041C129.424 13.756 128.125 13.1819 126.644 13.1819C125.103 13.1819 123.774 13.756 122.656 14.9041C121.568 16.022 121.024 17.6989 121.024 19.9347C121.024 22.1705 121.568 23.8624 122.656 25.0106C123.774 26.1285 125.088 26.6874 126.599 26.6874Z" fill="#0B091B"/>
<path d="M142.391 31.1741V8.69521H147.512L148.01 11.7317C148.735 10.644 149.687 9.7829 150.865 9.14842C152.074 8.48372 153.464 8.15137 155.035 8.15137C158.509 8.15137 160.972 9.49587 162.422 12.1849C163.238 10.9461 164.326 9.96418 165.685 9.23905C167.075 8.51393 168.586 8.15137 170.217 8.15137C173.148 8.15137 175.399 9.02756 176.97 10.7799C178.541 12.5323 179.327 15.1005 179.327 18.4844V31.1741H173.526V19.0283C173.526 17.0946 173.148 15.6141 172.393 14.5869C171.667 13.5596 170.534 13.046 168.994 13.046C167.422 13.046 166.154 13.62 165.187 14.7681C164.25 15.9163 163.782 17.5176 163.782 19.5721V31.1741H157.981V19.0283C157.981 17.0946 157.603 15.6141 156.848 14.5869C156.092 13.5596 154.929 13.046 153.358 13.046C151.817 13.046 150.563 13.62 149.596 14.7681C148.66 15.9163 148.192 17.5176 148.192 19.5721V31.1741H142.391Z" fill="#0B091B"/>
<path d="M183.928 41.1446V8.69521H189.094L189.729 11.913C190.454 10.9159 191.406 10.0397 192.584 9.28438C193.792 8.52904 195.348 8.15137 197.252 8.15137C199.367 8.15137 201.255 8.665 202.917 9.69226C204.579 10.7195 205.893 12.1245 206.86 13.9071C207.827 15.6897 208.31 17.714 208.31 19.98C208.31 22.246 207.827 24.2703 206.86 26.0529C205.893 27.8053 204.579 29.1951 202.917 30.2224C201.255 31.2194 199.367 31.718 197.252 31.718C195.56 31.718 194.079 31.4007 192.811 30.7662C191.542 30.1318 190.514 29.2405 189.729 28.0923V41.1446H183.928ZM196.028 26.6421C197.871 26.6421 199.397 26.0227 200.606 24.784C201.814 23.5452 202.418 21.9439 202.418 19.98C202.418 18.0161 201.814 16.3997 200.606 15.1307C199.397 13.8617 197.871 13.2273 196.028 13.2273C194.155 13.2273 192.614 13.8617 191.406 15.1307C190.227 16.3695 189.638 17.9708 189.638 19.9347C189.638 21.8986 190.227 23.515 191.406 24.784C192.614 26.0227 194.155 26.6421 196.028 26.6421Z" fill="#0B091B"/>
<path d="M220.336 31.718C218.402 31.718 216.816 31.4158 215.577 30.8116C214.338 30.1771 213.417 29.3462 212.812 28.3189C212.208 27.2917 211.906 26.1587 211.906 24.9199C211.906 22.8352 212.722 21.1432 214.353 19.844C215.985 18.5448 218.432 17.8953 221.695 17.8953H227.406V17.3514C227.406 15.8105 226.967 14.6775 226.091 13.9524C225.215 13.2273 224.127 12.8647 222.828 12.8647C221.65 12.8647 220.623 13.1517 219.746 13.7258C218.87 14.2696 218.326 15.0854 218.115 16.1731H212.45C212.601 14.5415 213.145 13.1215 214.081 11.913C215.048 10.7044 216.287 9.7829 217.798 9.14842C219.308 8.48372 221 8.15137 222.874 8.15137C226.076 8.15137 228.599 8.95203 230.442 10.5533C232.285 12.1547 233.207 14.4207 233.207 17.3514V31.1741H228.267L227.723 27.5485C227.058 28.757 226.121 29.7541 224.913 30.5396C223.735 31.3252 222.209 31.718 220.336 31.718ZM221.65 27.1859C223.312 27.1859 224.596 26.6421 225.502 25.5544C226.439 24.4667 227.028 23.1222 227.27 21.5209H222.33C220.789 21.5209 219.686 21.8079 219.021 22.382C218.357 22.9258 218.024 23.6056 218.024 24.4214C218.024 25.2976 218.357 25.9774 219.021 26.4608C219.686 26.9442 220.562 27.1859 221.65 27.1859Z" fill="#0B091B"/>
<path d="M237.836 31.1741V8.69521H242.957L243.41 12.5021C244.105 11.1727 245.102 10.1152 246.402 9.3297C247.731 8.54414 249.287 8.15137 251.07 8.15137C253.849 8.15137 256.009 9.02756 257.55 10.7799C259.091 12.5323 259.862 15.1005 259.862 18.4844V31.1741H254.061V19.0283C254.061 17.0946 253.668 15.6141 252.882 14.5869C252.097 13.5596 250.873 13.046 249.211 13.046C247.58 13.046 246.235 13.62 245.178 14.7681C244.151 15.9163 243.637 17.5176 243.637 19.5721V31.1741H237.836Z" fill="#0B091B"/>
<path d="M266.56 41.1446L271.772 29.6786H270.412L261.665 8.69521H267.965L274.264 24.512L280.836 8.69521H286.999L272.723 41.1446H266.56Z" fill="#0B091B"/>
<path d="M22.5751 37.3655C21.1296 38.8109 18.7854 38.8089 17.3424 37.361L2.60515 22.5731C1.16565 21.1286 1.16765 18.7913 2.60963 17.3493L17.3469 2.61207C18.7889 1.17009 21.1262 1.16809 22.5706 2.60759L37.3585 17.3449C38.8065 18.7879 38.8085 21.1321 37.363 22.5776L22.5751 37.3655Z" fill="#FB0F5A"/>
<path d="M42.5967 37.3585C41.1537 38.8065 38.8095 38.8085 37.364 37.363L22.5761 22.5751C21.1306 21.1296 21.1326 18.7854 22.5806 17.3424L37.3685 2.60515C38.813 1.16565 41.1503 1.16765 42.5922 2.60963L57.3295 17.3469C58.7715 18.7889 58.7735 21.1262 57.334 22.5706L42.5967 37.3585Z" fill="#770FFB"/>
<path d="M57.4361 37.3613C55.9919 38.8078 53.6479 38.8078 52.2037 37.3613L37.4386 22.5731C35.9959 21.128 35.9979 18.787 37.4431 17.3445L52.2082 2.60682C53.6514 1.16633 55.9884 1.16633 57.4316 2.60682L72.1967 17.3445C73.6419 18.787 73.6439 21.128 72.2012 22.5731L57.4361 37.3613Z" fill="#FB0F5A"/>
</svg>