<svg width="278" height="46" viewBox="0 0 278 46" fill="none" xmlns="http://www.w3.org/2000/svg">
<path d="M95.8973 24.3627C93.8837 27.6292 91.0199 29.5086 87.3059 29.5086C81.9363 29.5086 77.9985 25.1681 77.9985 19.5748C77.9985 13.9814 81.7573 9.6857 87.3954 9.6857C90.9751 9.6857 94.1969 11.6993 95.8078 14.7421L100.998 10.6254C98.3584 5.92696 93.5705 3.10791 87.4849 3.10791C77.7301 3.10791 70.8838 10.3569 70.8838 19.5748C70.8838 28.7926 77.8643 36.0864 87.3954 36.0864C93.3915 36.0864 98.4031 32.9093 101.133 28.3899L95.8973 24.3627Z" fill="#0B091B"/>
<path d="M115.347 12.0573C108.187 12.0573 103.041 17.2479 103.041 24.0495C103.041 30.8062 108.187 36.0864 115.347 36.0864C122.506 36.0864 127.652 30.8062 127.652 24.0495C127.652 17.2479 122.506 12.0573 115.347 12.0573ZM115.347 18.0981C118.434 18.0981 120.761 20.4697 120.761 24.0495C120.761 27.6292 118.434 30.0455 115.347 30.0455C112.259 30.0455 109.932 27.6292 109.932 24.0495C109.932 20.4697 112.259 18.0981 115.347 18.0981Z" fill="#0B091B"/>
<path d="M132.098 12.5943V35.5494H138.899V23.602C138.899 20.6039 140.466 18.0534 143.329 18.0534C145.835 18.0534 147.446 19.6195 147.446 22.6176V35.5494H154.248V23.602C154.248 20.6039 155.814 18.0534 158.678 18.0534C161.183 18.0534 162.75 19.6195 162.75 22.6176V35.5494H169.551V21.5884C169.551 15.637 166.195 12.0573 160.691 12.0573C156.798 12.0573 154.606 13.7577 152.95 16.0845C151.384 13.5339 148.878 12.0573 145.343 12.0573C142.345 12.0573 140.108 13.2207 138.631 15.5475V12.5943H132.098Z" fill="#0B091B"/>
<path d="M187.396 18.0534C190.305 18.0534 192.721 20.425 192.721 24.1389C192.721 27.7187 190.305 30.0903 187.396 30.0903C184.353 30.0903 181.982 27.7634 181.982 24.1389C181.982 20.3802 184.353 18.0534 187.396 18.0534ZM181.668 12.5943H175.359V44.4988H182.161V33.0436C183.592 35.1914 186.322 36.0864 188.783 36.0864C195.048 36.0864 199.567 30.8957 199.567 24.0495C199.567 16.9794 194.69 12.0573 188.828 12.0573C186.591 12.0573 183.458 12.997 181.668 15.7713V12.5943Z" fill="#0B091B"/>
<path d="M215.928 21.2751L209.663 22.4833C204.83 23.5125 202.19 25.8393 202.19 29.2401C202.19 33.2226 205.323 36.0864 209.797 36.0864C212.84 36.0864 215.078 34.744 216.151 32.7304V35.5494H222.461V21.0962C222.461 15.5028 218.657 12.0573 212.258 12.0573C207.963 12.0573 204.517 13.8472 202.414 16.3977L205.949 20.6934C207.336 19.1273 209.305 17.9191 211.856 17.9191C214.183 17.9191 215.928 18.8141 215.928 21.0962V21.2751ZM211.319 31.03C209.708 31.03 208.679 30.135 208.679 28.8374C208.679 27.5845 209.574 26.779 211.408 26.4658L215.972 25.5708V26.2421C215.972 28.9716 214.138 31.03 211.319 31.03Z" fill="#0B091B"/>
<path d="M228.19 12.5943V35.5494H234.992V23.602C234.992 20.6039 236.558 18.0534 239.511 18.0534C242.017 18.0534 243.628 19.6195 243.628 22.6176V35.5494H250.429V21.5884C250.429 15.637 247.029 12.0573 241.525 12.0573C238.437 12.0573 236.2 13.2207 234.723 15.5475V12.5943H228.19Z" fill="#0B091B"/>
<path d="M261.535 34.6992L261.266 35.4599C260.282 38.7264 258.626 39.3081 256.837 39.3081C256.076 39.3081 254.912 39.2186 253.704 38.5474V44.1856C254.733 44.6778 256.21 45.0357 257.821 45.0357C262.161 45.0357 264.936 42.9774 267.218 37.4288L277.241 12.5943H270.305L264.936 27.6292L259.611 12.5943H252.496L261.535 34.6992Z" fill="#0B091B"/>
<path d="M30.0871 0H22.8953C22.1635 0 21.5703 0.593202 21.5703 1.32495V39.396C21.5703 40.1278 22.1635 40.721 22.8953 40.721H30.0871C30.8189 40.721 31.4121 40.1278 31.4121 39.396V1.32495C31.4121 0.593201 30.8189 0 30.0871 0Z" fill="#FB0F5A"/>
<path d="M44.6158 40.7209C49.2361 40.7209 52.9816 36.9754 52.9816 32.3551C52.9816 27.7348 49.2361 23.9893 44.6158 23.9893C39.9955 23.9893 36.25 27.7348 36.25 32.3551C36.25 36.9754 39.9955 40.7209 44.6158 40.7209Z" fill="#FFCE22"/>
<path d="M44.6158 16.7316C49.2361 16.7316 52.9816 12.9861 52.9816 8.36581C52.9816 3.7455 49.2361 0 44.6158 0C39.9955 0 36.25 3.7455 36.25 8.36581C36.25 12.9861 39.9955 16.7316 44.6158 16.7316Z" fill="#770FFB"/>
<path d="M8.36581 40.7209C12.9861 40.7209 16.7316 36.9754 16.7316 32.3551C16.7316 27.7348 12.9861 23.9893 8.36581 23.9893C3.7455 23.9893 0 27.7348 0 32.3551C0 36.9754 3.7455 40.7209 8.36581 40.7209Z" fill="#770FFB"/>
</svg>