<svg width="279" height="45" viewBox="0 0 279 45" fill="none" xmlns="http://www.w3.org/2000/svg">
<path d="M34.824 19.1933C28.8887 19.1933 24.0709 14.3938 24.0709 8.49515C24.0709 7.72576 24.1625 6.99301 24.309 6.26025H10.0204C4.4881 6.26025 0 10.73 0 16.2257V34.6361C0 40.15 4.4881 44.6015 10.0204 44.6015H28.5223C34.0729 44.6015 38.5427 40.1317 38.5427 34.6361V18.5155C37.407 18.9369 36.143 19.1933 34.824 19.1933Z" fill="#FB0F5A"/>
<path d="M38.5608 34.6361V18.5155C37.4067 18.9369 36.1427 19.1933 34.8421 19.1933C28.9068 19.1933 24.0889 14.3938 24.0889 8.49515C24.0889 7.72576 24.1805 6.99301 24.3271 6.26025H10.0384C4.54281 6.26025 0.0913415 10.6568 0.0180664 16.1158C13.2076 21.5564 26.7635 28.1695 38.4875 35.9C38.5241 35.4787 38.5608 35.0574 38.5608 34.6361Z" fill="#FB0F5A"/>
<path d="M35.6483 15.4977C39.9532 15.4977 43.4338 12.0354 43.4338 7.74884C43.4338 3.48057 39.9532 0 35.6483 0C31.3434 0 27.8628 3.46225 27.8628 7.74884C27.8628 12.0171 31.3434 15.4977 35.6483 15.4977Z" fill="#770FFB"/>
<path d="M82.8179 25.355C82.5115 26.6573 81.9944 27.9212 81.2666 29.1469C80.5389 30.3342 79.6388 31.4067 78.5664 32.3642C77.4939 33.2835 76.2683 34.0303 74.8894 34.6049C73.5105 35.1411 72.0359 35.4092 70.4656 35.4092C68.6654 35.4092 66.961 35.0645 65.3523 34.3751C63.7819 33.6473 62.3839 32.6706 61.1582 31.445C59.9709 30.2193 59.0133 28.8022 58.2856 27.1935C57.5962 25.5465 57.2515 23.7846 57.2515 21.9079C57.2515 20.0311 57.5962 18.2883 58.2856 16.6797C59.0133 15.0327 59.9709 13.5964 61.1582 12.3707C62.3839 11.1451 63.7819 10.1875 65.3523 9.49809C66.961 8.77036 68.6654 8.40649 70.4656 8.40649C72.0359 8.40649 73.5105 8.69376 74.8894 9.26828C76.2683 9.80451 77.4939 10.5514 78.5664 11.5089C79.6388 12.4282 80.5389 13.5006 81.2666 14.7263C81.9944 15.9136 82.5115 17.1584 82.8179 18.4607H76.2108C75.9044 17.7713 75.4831 17.1584 74.9469 16.6222C74.4872 16.1626 73.8936 15.7413 73.1658 15.3583C72.4381 14.9369 71.538 14.7263 70.4656 14.7263C68.5888 14.7263 67.0184 15.3774 65.7544 16.6797C64.4905 17.9819 63.8585 19.7247 63.8585 21.9079C63.8585 24.0911 64.4905 25.8338 65.7544 27.136C67.0184 28.4383 68.5888 29.0894 70.4656 29.0894C71.538 29.0894 72.4381 28.8979 73.1658 28.5149C73.8936 28.1319 74.4872 27.7106 74.9469 27.2509C75.4831 26.7147 75.9044 26.0827 76.2108 25.355H82.8179Z" fill="#0B091B"/>
<path d="M93.7339 21.9079C93.7339 24.0911 94.3658 25.8338 95.6298 27.136C96.8937 28.4383 98.4641 29.0894 100.341 29.0894C102.218 29.0894 103.788 28.4383 105.052 27.136C106.316 25.8338 106.948 24.0911 106.948 21.9079C106.948 19.7247 106.316 17.9819 105.052 16.6797C103.788 15.3774 102.218 14.7263 100.341 14.7263C98.4641 14.7263 96.8937 15.3774 95.6298 16.6797C94.3658 17.9819 93.7339 19.7247 93.7339 21.9079ZM113.555 21.9079C113.555 23.7846 113.191 25.5465 112.463 27.1935C111.774 28.8022 110.816 30.2193 109.591 31.445C108.403 32.6706 107.005 33.6473 105.397 34.3751C103.826 35.0645 102.141 35.4092 100.341 35.4092C98.5407 35.4092 96.8363 35.0645 95.2276 34.3751C93.6572 33.6473 92.2592 32.6706 91.0336 31.445C89.8462 30.2193 88.8887 28.8022 88.161 27.1935C87.4715 25.5465 87.1268 23.7846 87.1268 21.9079C87.1268 20.0311 87.4715 18.2883 88.161 16.6797C88.8887 15.0327 89.8462 13.5964 91.0336 12.3707C92.2592 11.1451 93.6572 10.1875 95.2276 9.49809C96.8363 8.77036 98.5407 8.40649 100.341 8.40649C102.141 8.40649 103.826 8.77036 105.397 9.49809C107.005 10.1875 108.403 11.1451 109.591 12.3707C110.816 13.5964 111.774 15.0327 112.463 16.6797C113.191 18.2883 113.555 20.0311 113.555 21.9079Z" fill="#0B091B"/>
<path d="M131.913 8.40649C133.253 8.40649 134.403 8.598 135.36 8.98102C136.318 9.32574 137.103 9.70875 137.716 10.1301C138.405 10.628 138.96 11.2025 139.382 11.8536C139.995 11.2025 140.703 10.628 141.507 10.1301C142.197 9.70875 143.02 9.32574 143.978 8.98102C144.935 8.598 145.989 8.40649 147.138 8.40649C150.01 8.40649 152.309 9.32574 154.032 11.1642C155.756 13.0027 156.617 15.7221 156.617 19.3225V35.122H150.01V19.897C150.01 18.2883 149.57 17.0244 148.689 16.1051C147.846 15.1859 146.851 14.7263 145.702 14.7263C144.552 14.7263 143.537 15.1859 142.657 16.1051C141.814 17.0244 141.393 18.2883 141.393 19.897V35.122H134.786V19.897C134.786 18.2883 134.345 17.0244 133.464 16.1051C132.621 15.1859 131.626 14.7263 130.477 14.7263C129.328 14.7263 128.313 15.1859 127.432 16.1051C126.589 17.0244 126.168 18.2883 126.168 19.897V35.122H119.561V8.69376H124.444L125.593 11.2791C126.129 10.7429 126.723 10.2641 127.374 9.84281C127.91 9.49809 128.561 9.17253 129.328 8.86612C130.094 8.5597 130.955 8.40649 131.913 8.40649Z" fill="#0B091B"/>
<path d="M177.3 8.40649C178.947 8.40649 180.518 8.75121 182.012 9.44064C183.505 10.0918 184.808 11.0302 185.918 12.2558C187.067 13.4432 187.967 14.8603 188.619 16.5073C189.308 18.1543 189.653 19.9545 189.653 21.9079C189.653 23.8612 189.308 25.6614 188.619 27.3084C187.967 28.9554 187.067 30.3917 185.918 31.6173C184.808 32.8047 183.505 33.7431 182.012 34.4325C180.518 35.0836 178.947 35.4092 177.3 35.4092C176.19 35.4092 175.213 35.2752 174.37 35.007C173.566 34.7389 172.857 34.4517 172.245 34.1453C171.555 33.7622 170.942 33.3218 170.406 32.8238V44.3144H163.799V8.69376H168.683L169.832 11.2791C170.406 10.7429 171.076 10.2641 171.842 9.84281C172.494 9.49809 173.279 9.17253 174.198 8.86612C175.117 8.5597 176.151 8.40649 177.3 8.40649ZM169.832 21.9079C169.832 24.0911 170.464 25.8338 171.728 27.136C172.991 28.4383 174.562 29.0894 176.439 29.0894C178.315 29.0894 179.886 28.4383 181.15 27.136C182.414 25.8338 183.046 24.0911 183.046 21.9079C183.046 19.7247 182.414 17.9819 181.15 16.6797C179.886 15.3774 178.315 14.7263 176.439 14.7263C174.562 14.7263 172.991 15.3774 171.728 16.6797C170.464 17.9819 169.832 19.7247 169.832 21.9079Z" fill="#0B091B"/>
<path d="M206.61 8.40649C208.104 8.40649 209.483 8.67461 210.747 9.21083C212.011 9.70875 213.102 10.4173 214.022 11.3366C214.941 12.2558 215.649 13.3474 216.147 14.6114C216.684 15.8753 216.952 17.2542 216.952 18.748V35.122H212.068L210.919 32.5366C210.306 33.0728 209.636 33.5516 208.908 33.9729C208.257 34.3559 207.472 34.7006 206.553 35.007C205.634 35.2752 204.599 35.4092 203.45 35.4092C200.578 35.4092 198.375 34.7198 196.843 33.3409C195.311 31.9238 194.545 30.1236 194.545 27.9404C194.545 26.6381 194.794 25.4508 195.292 24.3783C195.828 23.2676 196.709 22.3292 197.935 21.5631C199.161 20.7588 200.769 20.146 202.761 19.7247C204.791 19.265 207.319 19.0352 210.345 19.0352C210.345 17.5798 209.942 16.4499 209.138 15.6455C208.372 14.8412 207.338 14.439 206.036 14.439C205.155 14.439 204.446 14.5922 203.91 14.8986C203.412 15.2051 203.01 15.5306 202.703 15.8753C202.359 16.2967 202.129 16.7754 202.014 17.3116H195.407C195.56 16.086 195.905 14.9369 196.441 13.8645C197.016 12.792 197.782 11.8536 198.739 11.0493C199.697 10.245 200.827 9.613 202.129 9.15338C203.469 8.65546 204.963 8.40649 206.61 8.40649ZM204.599 30.2385C206.323 30.2385 207.702 29.7406 208.736 28.7447C209.808 27.7106 210.345 26.3892 210.345 24.7805V23.6314C208.391 23.6314 206.821 23.7272 205.634 23.9187C204.446 24.0719 203.508 24.3209 202.818 24.6656C202.167 24.972 201.727 25.355 201.497 25.8146C201.267 26.2743 201.152 26.7913 201.152 27.3658C201.152 28.0936 201.478 28.7639 202.129 29.3767C202.78 29.9512 203.604 30.2385 204.599 30.2385Z" fill="#0B091B"/>
<path d="M237.612 8.40649C239.183 8.40649 240.619 8.67461 241.921 9.21083C243.223 9.70875 244.334 10.4556 245.253 11.4515C246.211 12.409 246.939 13.5772 247.437 14.9561C247.973 16.335 248.241 17.8862 248.241 19.6097V35.122H241.634V20.4715C241.634 18.748 241.117 17.3691 240.083 16.335C239.087 15.2625 237.785 14.7263 236.176 14.7263C234.567 14.7263 233.246 15.2625 232.212 16.335C231.216 17.3691 230.718 18.748 230.718 20.4715V35.122H224.111V8.69376H228.994L230.143 11.2791C230.794 10.7429 231.503 10.2641 232.269 9.84281C232.92 9.49809 233.686 9.17253 234.567 8.86612C235.486 8.5597 236.501 8.40649 237.612 8.40649Z" fill="#0B091B"/>
<path d="M252.572 8.69376H259.467L266.074 25.9295L272.106 8.69376H279C277.124 13.5198 275.419 17.8862 273.887 21.7929C273.236 23.4782 272.585 25.1252 271.934 26.7339C271.321 28.3425 270.766 29.8172 270.268 31.1577C269.77 32.46 269.348 33.5516 269.004 34.4325C268.659 35.3135 268.448 35.8305 268.372 35.9837C267.721 37.5541 267.069 38.8755 266.418 39.948C265.806 41.0587 265.135 41.9588 264.408 42.6482C263.68 43.3377 262.895 43.8356 262.052 44.142C261.209 44.4484 260.252 44.6016 259.179 44.6016C258.873 44.6016 258.566 44.5825 258.26 44.5442C257.992 44.5442 257.762 44.525 257.571 44.4867C257.303 44.4484 257.073 44.391 256.881 44.3144V38.8564C258.337 38.8564 259.447 38.5308 260.213 37.8797C261.018 37.2285 261.631 36.4051 262.052 35.4092L262.626 33.9729L252.572 8.69376Z" fill="#0B091B"/>
</svg>