<svg width="100" height="100" viewBox="0 0 100 100" fill="none" xmlns="http://www.w3.org/2000/svg">
<rect width="100" height="100" fill="#010101"/>
<path fill-rule="evenodd" clip-rule="evenodd" d="M62.3504 41.6589C66.2243 44.4267 70.9705 46.0554 76.0962 46.0554V36.1966C75.126 36.197 74.1585 36.0958 73.2095 35.8947V43.655C68.0842 43.655 63.3387 42.0263 59.4636 39.2586V59.3771C59.4636 69.4416 51.3008 77.5998 41.2318 77.5998C37.475 77.5998 33.9829 76.4646 31.082 74.5177C34.3928 77.901 39.0098 80.0001 44.1178 80.0001C54.1875 80.0001 62.3507 71.8419 62.3507 61.7771V41.6589H62.3504ZM65.9114 31.7127C63.9316 29.5509 62.6318 26.757 62.3504 23.6681V22.4001H59.6148C60.3033 26.3258 62.6519 29.6798 65.9114 31.7127V31.7127ZM37.4505 66.7948C36.3445 65.3453 35.7466 63.5718 35.7493 61.7485C35.7493 57.1453 39.4831 53.4132 44.0895 53.4132C44.9478 53.4126 45.8011 53.5443 46.6194 53.8037V43.7247C45.6633 43.5938 44.6985 43.5383 43.7337 43.5587V51.4037C42.9151 51.1443 42.0614 51.0126 41.2027 51.0132C36.5964 51.0132 32.8629 54.7453 32.8629 59.3488C32.8629 62.6037 34.7291 65.4221 37.4505 66.7948V66.7948Z" fill="#EE1D52"/>
<path fill-rule="evenodd" clip-rule="evenodd" d="M59.4638 39.2586C63.3388 42.0263 68.0843 43.655 73.2096 43.655V35.8947C70.3488 35.2858 67.816 33.7913 65.9116 31.7127C62.6521 29.6798 60.3034 26.3258 59.6149 22.4001H52.4295V61.7768C52.4132 66.3672 48.6857 70.084 44.0893 70.084C41.3806 70.084 38.9742 68.7938 37.4503 66.7948C34.7289 65.4221 32.8627 62.6037 32.8627 59.3488C32.8627 54.7453 36.5962 51.0132 41.2026 51.0132C42.085 51.0132 42.9357 51.1506 43.7335 51.4037V43.5587C33.8415 43.763 25.8857 51.8416 25.8857 61.7771C25.8857 66.7368 27.867 71.2331 31.0822 74.518C33.9831 76.4649 37.4751 77.6001 41.2319 77.6001C51.301 77.6001 59.4638 69.4416 59.4638 59.3775V39.2586Z" fill="white"/>
<path fill-rule="evenodd" clip-rule="evenodd" d="M73.2103 35.8945V33.7961C70.6302 33.8 68.1012 33.0778 65.9122 31.7122C67.8498 33.8325 70.4013 35.2947 73.2103 35.8945V35.8945ZM59.6156 22.4C59.5498 22.0249 59.4994 21.6472 59.4644 21.268V20H49.543V59.377C49.5271 63.9671 45.8 67.6839 41.2032 67.6839C39.8535 67.6839 38.5795 67.3639 37.451 66.7947C38.9749 68.7936 41.3812 70.0839 44.0899 70.0839C48.686 70.0839 52.4138 66.3671 52.4301 61.7766V22.4H59.6156ZM43.7345 43.5586V41.3246C42.9055 41.2113 42.0697 41.1546 41.2329 41.155C31.1628 41.155 23 49.3136 23 59.377C23 65.6864 26.2081 71.2467 31.0832 74.5175C27.868 71.2326 25.8867 66.7363 25.8867 61.7766C25.8867 51.8414 33.8421 43.7628 43.7345 43.5586V43.5586Z" fill="#69C9D0"/>
</svg>