<svg width="100" height="100" viewBox="0 0 100 100" fill="none" xmlns="http://www.w3.org/2000/svg">
<rect width="100" height="100" fill="url(#paint0_linear)"/>
<path d="M58.413 29.0095V29H60.8981L61.8061 29.1814C62.4115 29.2991 62.9611 29.4534 63.4549 29.6443C63.9488 29.8352 64.4267 30.0579 64.8886 30.3124C65.3506 30.5669 65.7696 30.8263 66.1456 31.0903C66.5184 31.3513 66.8529 31.6281 67.1492 31.9208C67.4422 32.2166 67.8995 32.293 68.5207 32.1498C69.142 32.0067 69.8111 31.8078 70.528 31.5533C71.2448 31.2988 71.9537 31.0124 72.6546 30.6942C73.3556 30.376 73.7826 30.174 73.9355 30.0881C74.0852 29.9991 74.1649 29.9513 74.1744 29.945L74.184 29.9306L74.2317 29.9068L74.2795 29.8829L74.3273 29.859L74.3751 29.8352L74.3847 29.8209L74.399 29.8113L74.4134 29.8018L74.4229 29.7875L74.4707 29.7731L74.5185 29.7636L74.509 29.8352L74.4946 29.9068L74.4707 29.9784L74.4468 30.0499L74.4229 30.0977L74.399 30.1454L74.3751 30.217C74.3592 30.2647 74.3433 30.3283 74.3273 30.4079C74.3114 30.4874 74.1601 30.8056 73.8733 31.3624C73.5866 31.9192 73.2281 32.4839 72.798 33.0566C72.3679 33.6293 71.9824 34.062 71.6415 34.3547C71.2974 34.6506 71.0696 34.8574 70.9581 34.9751C70.8466 35.096 70.7112 35.2074 70.5518 35.3092L70.3129 35.4667L70.2651 35.4906L70.2173 35.5144L70.2078 35.5287L70.1934 35.5383L70.1791 35.5478L70.1695 35.5622L70.1217 35.586L70.0739 35.6099L70.0644 35.6242L70.05 35.6337L70.0357 35.6433L70.0262 35.6576L70.0166 35.6719L70.0023 35.6815L69.9879 35.691L69.9784 35.7053H70.2173L71.5555 35.419C72.4476 35.2281 73.2998 34.9974 74.1123 34.727L75.4026 34.2974L75.546 34.2497L75.6177 34.2259L75.6655 34.202L75.7133 34.1781L75.761 34.1543L75.8088 34.1304L75.9044 34.1161L76 34.1065V34.202L75.9761 34.2115L75.9522 34.2259L75.9427 34.2402L75.9283 34.2497L75.914 34.2593L75.9044 34.2736L75.8949 34.2879L75.8805 34.2974L75.8662 34.307L75.8566 34.3213L75.8471 34.3356L75.8327 34.3452L75.8088 34.3929L75.7849 34.4406L75.7706 34.4502C75.7642 34.4597 75.562 34.7301 75.1637 35.2615C74.7654 35.796 74.5504 36.0664 74.5185 36.0728C74.4867 36.0824 74.442 36.1301 74.3847 36.216C74.3305 36.305 73.9928 36.6598 73.3715 37.2802C72.7502 37.9007 72.1418 38.4527 71.5459 38.9363C70.947 39.4231 70.6443 40.0212 70.6379 40.7307C70.6284 41.4371 70.5917 42.2357 70.528 43.1265C70.4642 44.0174 70.3448 44.9798 70.1695 46.0139C69.9943 47.0479 69.7235 48.2172 69.3571 49.5216C68.9907 50.8261 68.5446 52.0988 68.0189 53.3396C67.4932 54.5805 66.9436 55.694 66.3702 56.6804C65.7967 57.6667 65.271 58.5019 64.7931 59.1859C64.3151 59.8699 63.8293 60.5142 63.3354 61.1188C62.8416 61.7233 62.2172 62.4042 61.4621 63.1614C60.7038 63.9154 60.2896 64.3291 60.2195 64.4022C60.1463 64.4722 59.834 64.7331 59.2828 65.1849C58.7348 65.6399 58.1454 66.0948 57.5145 66.5498C56.8869 67.0016 56.3102 67.3787 55.7845 67.6809C55.2588 67.9832 54.6248 68.3283 53.8824 68.7165C53.1433 69.1079 52.3436 69.4706 51.4833 69.8047C50.6231 70.1387 49.7151 70.4489 48.7592 70.7353C47.8034 71.0216 46.8795 71.2444 45.9874 71.4034C45.0953 71.5625 44.0837 71.6978 42.9527 71.8091L41.2561 71.9761V72H38.1497V71.9761L37.7435 71.9523C37.4727 71.9364 37.2496 71.9204 37.0744 71.9046C36.8992 71.8887 36.2381 71.8011 35.0911 71.6421C33.9441 71.483 33.044 71.3239 32.3909 71.1648C31.7378 71.0057 30.766 70.7035 29.4757 70.258C28.1853 69.8126 27.0813 69.3624 26.1638 68.9074C25.2494 68.4556 24.6759 68.1693 24.4433 68.0484C24.2139 67.9307 23.9558 67.7843 23.6691 67.6093L23.239 67.3468L23.2294 67.3325L23.2151 67.323L23.2007 67.3134L23.1912 67.2991L23.1434 67.2752L23.0956 67.2514L23.0861 67.2371L23.0717 67.2275L23.0573 67.218L23.0478 67.2037L23.0383 67.1893L23.0239 67.1798H23V67.0844L23.0478 67.0939L23.0956 67.1082L23.3106 67.1321C23.454 67.148 23.8443 67.1718 24.4815 67.2037C25.1188 67.2355 25.7958 67.2355 26.5126 67.2037C27.2295 67.1718 27.9623 67.1002 28.711 66.9889C29.4597 66.8776 30.3439 66.6867 31.3634 66.4162C32.383 66.1457 33.3197 65.8244 34.1735 65.4522C35.0242 65.0768 35.6295 64.7968 35.9896 64.6122C36.3464 64.4309 36.8912 64.0936 37.624 63.6004L38.7232 62.8607L38.7327 62.8464L38.7471 62.8368L38.7615 62.8273L38.771 62.813L38.7805 62.7987L38.7949 62.7891L38.8092 62.7796L38.8188 62.7653L38.8665 62.7509L38.9143 62.7414L38.9239 62.6937L38.9382 62.6459L38.9526 62.6364L38.9621 62.6221L38.5798 62.5982C38.3249 62.5823 38.078 62.5664 37.839 62.5505C37.6001 62.5346 37.2257 62.463 36.716 62.3357C36.2062 62.2085 35.6566 62.0176 35.0672 61.763C34.4778 61.5085 33.9043 61.2062 33.3467 60.8563C32.7892 60.5063 32.3861 60.2151 32.1376 59.9829C31.8923 59.7538 31.5737 59.4293 31.1818 59.0093C30.7931 58.5862 30.4554 58.1519 30.1686 57.7064C29.8819 57.261 29.6079 56.7471 29.3467 56.1649L28.95 55.2963L28.9261 55.2248L28.9022 55.1532L28.8878 55.1054L28.8783 55.0577L28.95 55.0673L29.0216 55.0816L29.5473 55.1532C29.8978 55.2009 30.4474 55.2168 31.1961 55.2009C31.9449 55.185 32.4626 55.1532 32.7493 55.1054C33.0361 55.0577 33.2113 55.0259 33.275 55.01L33.3706 54.9861L33.4901 54.9623L33.6096 54.9384L33.6191 54.9241L33.6335 54.9145L33.6478 54.905L33.6573 54.8907L33.5618 54.8668L33.4662 54.843L33.3706 54.8191L33.275 54.7952L33.1794 54.7714C33.1157 54.7555 33.0042 54.7236 32.8449 54.6759C32.6856 54.6282 32.2555 54.4532 31.5546 54.1509C30.8537 53.8487 30.2961 53.5544 29.8819 53.268C29.4666 52.9809 29.0707 52.6668 28.6967 52.3279C28.3239 51.9842 27.9145 51.542 27.4684 51.0011C27.0224 50.4602 26.6242 49.8319 26.2737 49.116C25.9232 48.4001 25.6604 47.7161 25.4851 47.0638C25.3106 46.4154 25.1954 45.7525 25.1411 45.0832L25.055 44.081L25.1028 44.0906L25.1506 44.1049L25.1984 44.1287L25.2462 44.1526L25.294 44.1765L25.3417 44.2003L26.0825 44.5344C26.5764 44.7571 27.1897 44.948 27.9225 45.1071C28.6553 45.2662 29.0933 45.3537 29.2367 45.3696L29.4518 45.3935H29.8819L29.8724 45.3791L29.858 45.3696L29.8436 45.36L29.8341 45.3457L29.8246 45.3314L29.8102 45.3219L29.7959 45.3123L29.7863 45.298L29.7385 45.2741L29.6907 45.2503L29.6812 45.236L29.6668 45.2264L29.6525 45.2169L29.6429 45.2026L29.5951 45.1787L29.5473 45.1548L29.5378 45.1405C29.5283 45.1341 29.3913 45.0323 29.1268 44.8351C28.8655 44.6346 28.5915 44.3753 28.3048 44.0572C28.018 43.739 27.7313 43.4049 27.4445 43.0549C27.1573 42.7042 26.9014 42.3289 26.6799 41.9334C26.4569 41.5357 26.2211 41.0298 25.9726 40.4158C25.7273 39.8049 25.5409 39.1892 25.4134 38.5688C25.286 37.9484 25.2143 37.3359 25.1984 36.7314C25.1825 36.1269 25.1984 35.6099 25.2462 35.1804C25.294 34.7508 25.3895 34.2656 25.5329 33.7248C25.6763 33.1839 25.8834 32.6112 26.1542 32.0067L26.5604 31.0999L26.5843 31.0283L26.6082 30.9567L26.6226 30.9472L26.6321 30.9329L26.6417 30.9185L26.656 30.909L26.6704 30.9185L26.6799 30.9329L26.6894 30.9472L26.7038 30.9567L26.7182 30.9663L26.7277 30.9806L26.7372 30.9949L26.7516 31.0044L26.7755 31.0522L26.7994 31.0999L26.8138 31.1094L26.8233 31.1238L27.4684 31.8396C27.8986 32.3169 28.4083 32.8498 28.9977 33.4384C29.5872 34.027 29.9138 34.3324 29.9775 34.3547C30.0412 34.3802 30.1208 34.4533 30.2164 34.5743C30.312 34.692 30.6306 34.9736 31.1722 35.419C31.7139 35.8644 32.4228 36.3814 33.2989 36.97C34.1751 37.5586 35.1468 38.1393 36.2142 38.712C37.2815 39.2847 38.4285 39.8017 39.6551 40.263C40.8817 40.7244 41.742 41.0266 42.2358 41.1698C42.7297 41.313 43.5739 41.4959 44.7687 41.7186C45.9635 41.9414 46.8636 42.0846 47.4689 42.1482C48.0743 42.2118 48.4885 42.2484 48.7115 42.2579L49.046 42.2675L49.0365 42.1959L49.0221 42.1243L48.9265 41.5277C48.8628 41.1301 48.8309 40.5733 48.8309 39.8574C48.8309 39.1415 48.8867 38.4813 48.9982 37.8768C49.1097 37.2723 49.277 36.6598 49.5 36.0394C49.723 35.419 49.9413 34.921 50.1547 34.5456C50.3714 34.1734 50.655 33.7486 51.0054 33.2714C51.3559 32.7941 51.8099 32.301 52.3674 31.7919C52.925 31.2828 53.5622 30.8294 54.2791 30.4317C54.9959 30.0341 55.6571 29.7318 56.2624 29.525C56.8678 29.3182 57.3775 29.1829 57.7917 29.1193C58.2059 29.0557 58.413 29.0191 58.413 29.0095V29.0095Z" fill="white"/>
<defs>
<linearGradient id="paint0_linear" x1="50" y1="0" x2="50" y2="100" gradientUnits="userSpaceOnUse">
<stop stop-color="#1DA1F2"/>
<stop offset="1" stop-color="#0581DB"/>
</linearGradient>
</defs>
</svg>