<svg width="100" height="100" viewBox="0 0 100 100" fill="none" xmlns="http://www.w3.org/2000/svg">
<rect width="100" height="100" fill="url(#paint0_linear)"/>
<path d="M51.285 70.9463L39.3856 70.7239C35.5329 70.6464 31.6705 70.8011 27.8933 69.9982C22.1473 68.7986 21.7403 62.9169 21.3143 57.9833C20.7274 51.0472 20.9546 43.9852 22.0622 37.107C22.6875 33.2476 25.1482 30.9447 28.9535 30.6941C41.7995 29.7846 54.7309 29.8924 67.5484 30.3167C68.9021 30.3556 70.2651 30.5682 71.5999 30.8102C78.1888 31.9904 78.3495 38.6557 78.7766 44.2667C79.2026 49.9355 79.0227 55.6334 78.2086 61.2637C77.5554 65.9253 76.3057 69.8346 71.0319 70.212C64.4241 70.7055 57.968 71.1028 51.3416 70.9763C51.3419 70.9463 51.3038 70.9463 51.285 70.9463ZM44.2893 59.1442C49.2688 56.2225 54.1533 53.3495 59.1043 50.4474C54.1155 47.5257 49.2403 44.6527 44.2893 41.7505V59.1442Z" fill="white"/>
<defs>
<linearGradient id="paint0_linear" x1="50" y1="0" x2="50" y2="100" gradientUnits="userSpaceOnUse">
<stop stop-color="#FF002E"/>
<stop offset="1" stop-color="#ED0202"/>
</linearGradient>
</defs>
</svg>